<svg xmlns="http://www.w3.org/2000/svg" viewBox="0 0 48 48">
  <path d="M11.5 6C8.4802259 6 6 8.4802259 6 11.5L6 36.5C6 39.519774 8.4802259 42 11.5 42L36.5 42C39.519774 42 42 39.519774 42 36.5L42 11.5C42 8.4802259 39.519774 6 36.5 6L11.5 6 z M 19.587891 15.001953C19.855516 15.017828 20.120109 15.105672 20.349609 15.263672L31.279297 22.763672C31.687297 23.042672 31.933594 23.505 31.933594 24C31.933594 24.495 31.68925 24.957328 31.28125 25.236328L20.349609 32.738281C20.094609 32.913281 19.798953 33.001953 19.501953 33.001953C19.261953 33.001953 19.020781 32.944125 18.800781 32.828125C18.306781 32.568125 18 32.060953 18 31.501953L18 16.498047C18 15.939047 18.307734 15.431875 18.802734 15.171875C19.049734 15.041375 19.320266 14.986078 19.587891 15.001953 z" fill="#FFFFFF" />
</svg>