<svg xmlns="http://www.w3.org/2000/svg" viewBox="0 0 48 48">
  <path d="M11.5 6C8.4802259 6 6 8.4802259 6 11.5L6 36.5C6 39.519774 8.4802259 42 11.5 42L36.5 42C39.519774 42 42 39.519774 42 36.5L42 11.5C42 8.4802259 39.519774 6 36.5 6L11.5 6 z M 28.412109 15C28.679609 14.984375 28.952219 15.041375 29.199219 15.171875C29.693219 15.431875 30 15.939047 30 16.498047L30 31.501953C30 32.060953 29.692266 32.568125 29.197266 32.828125C28.978266 32.944125 28.739 33.001953 28.5 33.001953C28.202 33.001953 27.905391 32.912328 27.650391 32.736328L16.720703 25.236328C16.312703 24.957328 16.068359 24.495 16.068359 24C16.068359 23.505 16.312703 23.042672 16.720703 22.763672L27.652344 15.261719C27.882344 15.103719 28.144609 15.015625 28.412109 15 z" fill="#FFFFFF" />
</svg>