<svg xmlns="http://www.w3.org/2000/svg" viewBox="0 0 48 48">
  <path d="M12.5 4C10.019 4 8 6.019 8 8.5L8 39.5C8 41.981 10.019 44 12.5 44L26.539062 44C26.193062 43.399 26 42.732 26 42L26 35L17.490234 35C16.662234 35 15.990234 34.328 15.990234 33.5C15.990234 32.741 16.555109 32.112672 17.287109 32.013672L17.490234 32L26 32L26 30C26 29.262 26.193922 28.604 26.544922 28L17.490234 28C16.662234 28 15.990234 27.315328 15.990234 26.486328C15.990234 25.726328 16.555109 25.099 17.287109 25L17.490234 24.986328L30.5 24.986328C30.571 24.986328 30.637078 24.997812 30.705078 25.007812C32.569078 24.344812 34.787 24 37 24C38.01 24 39.021 24.070938 40 24.210938L40 20L28.5 20C26.019 20 24 17.981 24 15.5L24 4L12.5 4 z M 27 4.8789062L27 15.5C27 16.327 27.673 17 28.5 17L39.121094 17L27 4.8789062 z M 37 26C32.029 26 28 27.791 28 30C28 32.209 32.029 34 37 34C41.971 34 46 32.209 46 30C46 27.791 41.971 26 37 26 z M 28 33L28 36C28 38.21 32.03 40 37 40C41.97 40 46 38.21 46 36L46 33C46 35.21 41.97 37 37 37C32.03 37 28 35.21 28 33 z M 28 39L28 42C28 44.21 32.03 46 37 46C41.97 46 46 44.21 46 42L46 39C46 41.21 41.97 43 37 43C32.03 43 28 41.21 28 39 z" fill="#FFFFFF" />
</svg>