<svg xmlns="http://www.w3.org/2000/svg" viewBox="0 0 48 48">
  <path d="M42.474,13c-1.93,0-3.5-1.57-3.5-3.5c0-0.829-0.671-1.5-1.5-1.5h-27c-0.829,0-1.5,0.671-1.5,1.5c0,1.93-1.57,3.5-3.5,3.5c-0.829,0-1.5,0.671-1.5,1.5v19c0,0.829,0.671,1.5,1.5,1.5c1.93,0,3.5,1.57,3.5,3.5c0,0.829,0.671,1.5,1.5,1.5h27c0.829,0,1.5-0.671,1.5-1.5c0-1.93,1.57-3.5,3.5-3.5c0.829,0,1.5-0.671,1.5-1.5v-19C43.974,13.671,43.303,13,42.474,13z M33.5,29h-19c-0.829,0-1.5-0.671-1.5-1.5s0.671-1.5,1.5-1.5h19c0.829,0,1.5,0.671,1.5,1.5S34.329,29,33.5,29z M36.5,22h-25c-0.829,0-1.5-0.671-1.5-1.5s0.671-1.5,1.5-1.5h25c0.829,0,1.5,0.671,1.5,1.5S37.329,22,36.5,22z" fill="#FFFFFF" />
</svg>