<svg xmlns="http://www.w3.org/2000/svg" viewBox="0 0 48 48">
  <path d="M24 3.9980469C12.972292 3.9980469 4 12.970339 4 23.998047C4 27.273363 4.8627078 30.334853 6.2617188 33.064453L4.09375 40.826172C3.5887973 42.629575 5.3719261 44.41261 7.1757812 43.908203L14.943359 41.740234C17.670736 43.136312 20.727751 43.998047 24 43.998047C35.027708 43.998047 44 35.025755 44 23.998047C44 12.970339 35.027708 3.9980469 24 3.9980469 z M 18 17C20.209 17 22 18.791 22 21C22 21.086 21.979609 21.166953 21.974609 21.251953C21.988609 21.332953 22 21.415953 22 21.501953C22 21.776953 21.947391 28.290172 17.400391 31.701172C17.130391 31.903172 16.814953 32.001953 16.501953 32.001953C16.045953 32.001953 15.595781 31.793391 15.300781 31.400391C14.803781 30.737391 14.937609 29.797781 15.599609 29.300781C17.107609 28.169781 17.943156 26.478984 18.410156 24.958984C18.273156 24.972984 18.141 25 18 25C15.791 25 14 23.209 14 21C14 18.791 15.791 17 18 17 z M 30 17C32.209 17 34 18.791 34 21C34 21.086 33.979609 21.166953 33.974609 21.251953C33.988609 21.332953 34 21.415953 34 21.501953C34 21.776953 33.947391 28.290172 29.400391 31.701172C29.130391 31.903172 28.814953 32.001953 28.501953 32.001953C28.045953 32.001953 27.595781 31.793391 27.300781 31.400391C26.803781 30.737391 26.937609 29.797781 27.599609 29.300781C29.107609 28.169781 29.943156 26.478984 30.410156 24.958984C30.273156 24.972984 30.141 25 30 25C27.791 25 26 23.209 26 21C26 18.791 27.791 17 30 17 z" fill="#FFFFFF" />
</svg>