<svg xmlns="http://www.w3.org/2000/svg" viewBox="0 0 48 48">
  <path d="M9.5 6C7.019 6 5 8.019 5 10.5L5 29.5C5 31.981 7.019 34 9.5 34L10.804688 34C11.281688 32.952 11.955594 31.995125 12.808594 31.203125C14.501594 29.630125 17.333 27 24 27C30.667 27 33.499406 29.629172 35.191406 31.201172C36.044406 31.994172 36.717359 32.952 37.193359 34L38.5 34C40.981 34 43 31.981 43 29.5L43 10.5C43 8.019 40.981 6 38.5 6L9.5 6 z M 23.990234 13C27.299234 13 29.982422 15.681234 29.982422 18.990234C29.983422 22.299234 27.299234 24.982422 23.990234 24.982422C20.681234 24.982422 18 22.299234 18 18.990234C18 15.681234 20.681234 13 23.990234 13 z M 24 29C18.118 29 15.742922 31.207969 14.169922 32.667969C12.791922 33.949969 12 35.777594 12 37.683594L12 37.994141C12 40.202141 13.819641 42 16.056641 42L31.943359 42C34.180359 42 36 40.202141 36 37.994141L36 37.683594C36 35.777594 35.208078 33.948969 33.830078 32.667969C32.257078 31.207969 29.882 29 24 29 z" fill="#FFFFFF" />
</svg>